<svg width="94" height="32" viewBox="0 0 94 32" fill="none" xmlns="http://www.w3.org/2000/svg">
<path d="M2.83164 31.3309H1.54192L1.31404 31.9224H0.150391L1.63405 28.5285H2.75891L4.24256 31.9224H3.05952L2.83164 31.3309ZM2.51648 30.5067L2.18678 29.6533L1.85708 30.5067H2.51648Z" fill="white"/>
<path d="M6.30156 28.5285C6.6151 28.5285 6.88824 28.5802 7.12097 28.6836C7.3537 28.787 7.53309 28.9357 7.65916 29.1297C7.78522 29.3236 7.84825 29.5499 7.84825 29.8085C7.84825 30.0671 7.78522 30.2933 7.65916 30.4873C7.53309 30.6812 7.3537 30.8299 7.12097 30.9333C6.88824 31.0368 6.6151 31.0885 6.30156 31.0885H5.81186V31.9224H4.6676V28.5285H6.30156ZM6.22884 30.206C6.38399 30.206 6.50035 30.1721 6.57793 30.1042C6.65551 30.0331 6.6943 29.9345 6.6943 29.8085C6.6943 29.6824 6.65551 29.5854 6.57793 29.5176C6.50035 29.4464 6.38399 29.4109 6.22884 29.4109H5.81186V30.206H6.22884Z" fill="white"/>
<path d="M10.0999 28.5285C10.4134 28.5285 10.6866 28.5802 10.9193 28.6836C11.152 28.787 11.3314 28.9357 11.4575 29.1297C11.5836 29.3236 11.6466 29.5499 11.6466 29.8085C11.6466 30.0671 11.5836 30.2933 11.4575 30.4873C11.3314 30.6812 11.152 30.8299 10.9193 30.9333C10.6866 31.0368 10.4134 31.0885 10.0999 31.0885H9.6102V31.9224H8.46595V28.5285H10.0999ZM10.0272 30.206C10.1823 30.206 10.2987 30.1721 10.3763 30.1042C10.4538 30.0331 10.4926 29.9345 10.4926 29.8085C10.4926 29.6824 10.4538 29.5854 10.3763 29.5176C10.2987 29.4464 10.1823 29.4109 10.0272 29.4109H9.6102V30.206H10.0272Z" fill="white"/>
<path d="M14.4683 31.9709C14.284 31.9709 14.1305 31.9127 14.0077 31.7964C13.8881 31.6768 13.8283 31.5249 13.8283 31.3406C13.8283 31.1564 13.8881 31.0077 14.0077 30.8945C14.1305 30.7782 14.284 30.72 14.4683 30.72C14.6525 30.72 14.8045 30.7782 14.9241 30.8945C15.0469 31.0077 15.1083 31.1564 15.1083 31.3406C15.1083 31.5249 15.0469 31.6768 14.9241 31.7964C14.8045 31.9127 14.6525 31.9709 14.4683 31.9709Z" fill="white"/>
<path d="M19.0527 28.5285C19.3662 28.5285 19.6393 28.5802 19.8721 28.6836C20.1048 28.787 20.2842 28.9357 20.4103 29.1297C20.5363 29.3236 20.5994 29.5499 20.5994 29.8085C20.5994 30.0671 20.5363 30.2933 20.4103 30.4873C20.2842 30.6812 20.1048 30.8299 19.8721 30.9333C19.6393 31.0368 19.3662 31.0885 19.0527 31.0885H18.563V31.9224H17.4187V28.5285H19.0527ZM18.9799 30.206C19.1351 30.206 19.2515 30.1721 19.329 30.1042C19.4066 30.0331 19.4454 29.9345 19.4454 29.8085C19.4454 29.6824 19.4066 29.5854 19.329 29.5176C19.2515 29.4464 19.1351 29.4109 18.9799 29.4109H18.563V30.206H18.9799Z" fill="white"/>
<path d="M23.3593 31.3309H22.0696L21.8418 31.9224H20.6781L22.1618 28.5285H23.2866L24.7703 31.9224H23.5872L23.3593 31.3309ZM23.0442 30.5067L22.7145 29.6533L22.3848 30.5067H23.0442Z" fill="white"/>
<path d="M26.9031 32C26.5443 32 26.2211 31.9257 25.9334 31.777C25.6458 31.6251 25.4195 31.415 25.2546 31.1467C25.093 30.8751 25.0122 30.5681 25.0122 30.2254C25.0122 29.8828 25.093 29.5774 25.2546 29.3091C25.4195 29.0375 25.6458 28.8274 25.9334 28.6788C26.2211 28.5268 26.5443 28.4509 26.9031 28.4509C27.2328 28.4509 27.527 28.5091 27.7856 28.6254C28.0442 28.7418 28.2575 28.9099 28.4256 29.1297L27.7031 29.7745C27.493 29.5095 27.2458 29.3769 26.9613 29.3769C26.7221 29.3769 26.5298 29.4545 26.3843 29.6097C26.2389 29.7616 26.1662 29.9669 26.1662 30.2254C26.1662 30.484 26.2389 30.6909 26.3843 30.8461C26.5298 30.998 26.7221 31.0739 26.9613 31.0739C27.2458 31.0739 27.493 30.9414 27.7031 30.6764L28.4256 31.3212C28.2575 31.541 28.0442 31.7091 27.7856 31.8255C27.527 31.9418 27.2328 32 26.9031 32Z" fill="white"/>
<path d="M29.7117 29.4157H28.7177V28.5285H31.8499V29.4157H30.856V31.9224H29.7117V29.4157Z" fill="white"/>
<path d="M34.1216 32C33.7563 32 33.4283 31.924 33.1373 31.7721C32.8464 31.6202 32.6186 31.4101 32.4537 31.1418C32.2889 30.8703 32.2064 30.5648 32.2064 30.2254C32.2064 29.886 32.2889 29.5822 32.4537 29.3139C32.6186 29.0424 32.8464 28.8307 33.1373 28.6788C33.4283 28.5268 33.7563 28.4509 34.1216 28.4509C34.4869 28.4509 34.8149 28.5268 35.1059 28.6788C35.3968 28.8307 35.6246 29.0424 35.7895 29.3139C35.9544 29.5822 36.0368 29.886 36.0368 30.2254C36.0368 30.5648 35.9544 30.8703 35.7895 31.1418C35.6246 31.4101 35.3968 31.6202 35.1059 31.7721C34.8149 31.924 34.4869 32 34.1216 32ZM34.1216 31.0739C34.2638 31.0739 34.3915 31.04 34.5046 30.9721C34.621 30.901 34.7131 30.8024 34.781 30.6764C34.8489 30.5471 34.8828 30.3968 34.8828 30.2254C34.8828 30.0541 34.8489 29.9054 34.781 29.7794C34.7131 29.6501 34.621 29.5515 34.5046 29.4836C34.3915 29.4125 34.2638 29.3769 34.1216 29.3769C33.9794 29.3769 33.8501 29.4125 33.7337 29.4836C33.6206 29.5515 33.5301 29.6501 33.4622 29.7794C33.3943 29.9054 33.3604 30.0541 33.3604 30.2254C33.3604 30.3968 33.3943 30.5471 33.4622 30.6764C33.5301 30.8024 33.6206 30.901 33.7337 30.9721C33.8501 31.04 33.9794 31.0739 34.1216 31.0739Z" fill="white"/>
<path d="M40.0245 28.5285C40.3381 28.5285 40.6112 28.5802 40.8439 28.6836C41.0766 28.787 41.256 28.9357 41.3821 29.1297C41.5082 29.3236 41.5712 29.5499 41.5712 29.8085C41.5712 30.0671 41.5082 30.2933 41.3821 30.4873C41.256 30.6812 41.0766 30.8299 40.8439 30.9333C40.6112 31.0368 40.3381 31.0885 40.0245 31.0885H39.5348V31.9224H38.3906V28.5285H40.0245ZM39.9518 30.206C40.1069 30.206 40.2233 30.1721 40.3009 30.1042C40.3785 30.0331 40.4172 29.9345 40.4172 29.8085C40.4172 29.6824 40.3785 29.5854 40.3009 29.5176C40.2233 29.4464 40.1069 29.4109 39.9518 29.4109H39.5348V30.206H39.9518Z" fill="white"/>
<path d="M45.0107 31.0594V31.9224H42.1889V28.5285H44.9477V29.3915H43.3138V29.7891H44.7489V30.6133H43.3138V31.0594H45.0107Z" fill="white"/>
<path d="M45.6937 28.5285H46.8379V31.0351H48.3701V31.9224H45.6937V28.5285Z" fill="white"/>
<path d="M50.6606 32C50.2954 32 49.9673 31.924 49.6764 31.7721C49.3855 31.6202 49.1576 31.4101 48.9927 31.1418C48.8279 30.8703 48.7455 30.5648 48.7455 30.2254C48.7455 29.886 48.8279 29.5822 48.9927 29.3139C49.1576 29.0424 49.3855 28.8307 49.6764 28.6788C49.9673 28.5268 50.2954 28.4509 50.6606 28.4509C51.0259 28.4509 51.354 28.5268 51.6449 28.6788C51.9358 28.8307 52.1637 29.0424 52.3285 29.3139C52.4934 29.5822 52.5758 29.886 52.5758 30.2254C52.5758 30.5648 52.4934 30.8703 52.3285 31.1418C52.1637 31.4101 51.9358 31.6202 51.6449 31.7721C51.354 31.924 51.0259 32 50.6606 32ZM50.6606 31.0739C50.8029 31.0739 50.9305 31.04 51.0437 30.9721C51.16 30.901 51.2522 30.8024 51.32 30.6764C51.3879 30.5471 51.4218 30.3968 51.4218 30.2254C51.4218 30.0541 51.3879 29.9054 51.32 29.7794C51.2522 29.6501 51.16 29.5515 51.0437 29.4836C50.9305 29.4125 50.8029 29.3769 50.6606 29.3769C50.5184 29.3769 50.3891 29.4125 50.2727 29.4836C50.1596 29.5515 50.0691 29.6501 50.0012 29.7794C49.9333 29.9054 49.8994 30.0541 49.8994 30.2254C49.8994 30.3968 49.9333 30.5471 50.0012 30.6764C50.0691 30.8024 50.1596 30.901 50.2727 30.9721C50.3891 31.04 50.5184 31.0739 50.6606 31.0739Z" fill="white"/>
<path d="M53.9232 29.4157H52.9292V28.5285H56.0614V29.4157H55.0674V31.9224H53.9232V29.4157Z" fill="white"/>
<path d="M58.7433 31.3309H57.4536L57.2257 31.9224H56.0621L57.5457 28.5285H58.6706L60.1542 31.9224H58.9712L58.7433 31.3309ZM58.4282 30.5067L58.0984 29.6533L57.7687 30.5067H58.4282Z" fill="white"/>
<path d="M61.8447 32C61.5635 32 61.2888 31.9693 61.0205 31.9079C60.7554 31.8432 60.5373 31.7576 60.3659 31.6509L60.7344 30.817C60.896 30.9107 61.0771 30.9867 61.2775 31.0448C61.4779 31.0998 61.6702 31.1273 61.8544 31.1273C62.0128 31.1273 62.126 31.1127 62.1938 31.0836C62.2617 31.0513 62.2957 31.0044 62.2957 30.943C62.2957 30.8719 62.2504 30.8186 62.1599 30.783C62.0726 30.7475 61.9272 30.7087 61.7235 30.6667C61.4617 30.6117 61.2435 30.5535 61.069 30.4921C60.8944 30.4275 60.7425 30.324 60.6132 30.1818C60.4839 30.0363 60.4193 29.8408 60.4193 29.5951C60.4193 29.3818 60.4791 29.1879 60.5987 29.0133C60.7183 28.8388 60.896 28.7014 61.132 28.6012C61.3712 28.501 61.6605 28.4509 61.9999 28.4509C62.2326 28.4509 62.4605 28.4767 62.6835 28.5285C62.9098 28.5769 63.1086 28.6497 63.2799 28.7466L62.9357 29.5757C62.6027 29.4077 62.2876 29.3236 61.9902 29.3236C61.6961 29.3236 61.549 29.3947 61.549 29.5369C61.549 29.6048 61.5926 29.6565 61.6799 29.6921C61.7672 29.7244 61.911 29.76 62.1114 29.7988C62.37 29.8473 62.5882 29.9038 62.766 29.9685C62.9437 30.0299 63.0973 30.1317 63.2266 30.2739C63.3591 30.4162 63.4254 30.6101 63.4254 30.8558C63.4254 31.0691 63.3656 31.263 63.246 31.4376C63.1264 31.6089 62.947 31.7463 62.7078 31.8497C62.4718 31.9499 62.1841 32 61.8447 32Z" fill="white"/>
<path d="M67.3383 28.5285C67.6518 28.5285 67.925 28.5802 68.1577 28.6836C68.3904 28.787 68.5698 28.9357 68.6959 29.1297C68.822 29.3236 68.885 29.5499 68.885 29.8085C68.885 30.0671 68.822 30.2933 68.6959 30.4873C68.5698 30.6812 68.3904 30.8299 68.1577 30.9333C67.925 31.0368 67.6518 31.0885 67.3383 31.0885H66.8486V31.9224H65.7043V28.5285H67.3383ZM67.2656 30.206C67.4207 30.206 67.5371 30.1721 67.6147 30.1042C67.6922 30.0331 67.731 29.9345 67.731 29.8085C67.731 29.6824 67.6922 29.5854 67.6147 29.5176C67.5371 29.4464 67.4207 29.4109 67.2656 29.4109H66.8486V30.206H67.2656Z" fill="white"/>
<path d="M72.3245 31.0594V31.9224H69.5027V28.5285H72.2615V29.3915H70.6275V29.7891H72.0627V30.6133H70.6275V31.0594H72.3245Z" fill="white"/>
<path d="M73.0075 28.5285H74.1517V31.0351H75.6839V31.9224H73.0075V28.5285Z" fill="white"/>
<path d="M78.6024 31.3309H77.3127L77.0849 31.9224H75.9212L77.4049 28.5285H78.5297L80.0134 31.9224H78.8303L78.6024 31.3309ZM78.2873 30.5067L77.9576 29.6533L77.6279 30.5067H78.2873Z" fill="white"/>
<path d="M83.7684 28.5285C84.082 28.5285 84.3551 28.5802 84.5878 28.6836C84.8206 28.787 85 28.9357 85.126 29.1297C85.2521 29.3236 85.3151 29.5499 85.3151 29.8085C85.3151 30.0671 85.2521 30.2933 85.126 30.4873C85 30.6812 84.8206 30.8299 84.5878 30.9333C84.3551 31.0368 84.082 31.0885 83.7684 31.0885H83.2787V31.9224H82.1345V28.5285H83.7684ZM83.6957 30.206C83.8508 30.206 83.9672 30.1721 84.0448 30.1042C84.1224 30.0331 84.1611 29.9345 84.1611 29.8085C84.1611 29.6824 84.1224 29.5854 84.0448 29.5176C83.9672 29.4464 83.8508 29.4109 83.6957 29.4109H83.2787V30.206H83.6957Z" fill="white"/>
<path d="M88.0751 31.3309H86.7854L86.5575 31.9224H85.3939L86.8775 28.5285H88.0024L89.486 31.9224H88.303L88.0751 31.3309ZM87.7599 30.5067L87.4302 29.6533L87.1005 30.5067H87.7599Z" fill="white"/>
<path d="M92.9075 31.0351V31.9224H89.7899V31.2194L91.3414 29.4157H89.8383V28.5285H92.8299V29.2315L91.2784 31.0351H92.9075Z" fill="white"/>
<path d="M17.2461 25.4509L17.1915 16.0873L12.2796 23.5634H9.87828L4.99372 16.3609V25.4509H0V6.30287H3.66292L11.1608 16.1474L18.7567 6.30287H22.1579L22.2125 25.4509H17.2461Z" fill="white"/>
<path d="M25.9321 10.6248H31.1169V25.4509H25.9321V10.6248Z" fill="white"/>
<path d="M39.5676 12.4029C40.0951 11.7281 40.7774 11.2266 41.6142 10.8984C42.4692 10.5519 43.4425 10.3787 44.534 10.3787V15.0562C44.061 15.0015 43.6699 14.9742 43.3606 14.9742C42.2509 14.9742 41.3777 15.2751 40.741 15.8769C40.1224 16.4787 39.8132 17.3996 39.8132 18.6396V25.4509H34.6284V10.6248H39.5676V12.4029Z" fill="white"/>
<path d="M53.0126 10.3787C55.4686 10.3787 57.3424 10.944 58.634 12.0746C59.9256 13.187 60.5714 14.9012 60.5714 17.2172V25.4509H55.7415V23.5361C54.9956 24.9767 53.5402 25.697 51.3754 25.697C50.2293 25.697 49.2378 25.4965 48.401 25.0953C47.5641 24.6941 46.9274 24.1561 46.4908 23.4814C46.0724 22.7884 45.8632 22.0042 45.8632 21.1289C45.8632 19.7247 46.3998 18.6396 47.4732 17.8737C48.5465 17.0896 50.202 16.6975 52.4396 16.6975H55.3867C55.2957 15.1292 54.2497 14.345 52.2486 14.345C51.5391 14.345 50.8205 14.4636 50.0928 14.7006C49.3651 14.9195 48.7466 15.2295 48.2372 15.6307L46.4908 12.102C47.3094 11.5549 48.3009 11.1355 49.4652 10.8437C50.6477 10.5337 51.8302 10.3787 53.0126 10.3787ZM52.8216 22.4145C53.422 22.4145 53.9495 22.2686 54.4043 21.9769C54.8591 21.6851 55.1866 21.2565 55.3867 20.6912V19.4056H53.1491C51.6391 19.4056 50.8842 19.9071 50.8842 20.9101C50.8842 21.366 51.057 21.7307 51.4026 22.0042C51.7483 22.2778 52.2213 22.4145 52.8216 22.4145Z" fill="white"/>
<path d="M73.6189 10.3787C75.4563 10.3787 76.9299 10.9257 78.0396 12.0199C79.1675 13.1141 79.7314 14.7645 79.7314 16.971V25.4509H74.5467V17.819C74.5467 15.7948 73.7372 14.7827 72.1181 14.7827C71.2267 14.7827 70.5081 15.0745 69.9623 15.658C69.4347 16.2416 69.171 17.1169 69.171 18.284V25.4509H63.9862V10.6248H68.9254V12.2387C69.5075 11.637 70.1988 11.181 70.9993 10.871C71.7997 10.5428 72.6729 10.3787 73.6189 10.3787Z" fill="white"/>
<path d="M93.3345 24.8491C92.8979 25.1226 92.3612 25.3323 91.7245 25.4782C91.1059 25.6241 90.4419 25.697 89.7325 25.697C87.8041 25.697 86.3214 25.2229 85.2845 24.2746C84.2475 23.3263 83.7291 21.913 83.7291 20.0347V15.0562H81.5733V11.1719H83.7291V7.31498H88.9138V11.1719H92.2975V15.0562H88.9138V19.98C88.9138 20.5089 89.0503 20.9283 89.3231 21.2383C89.6142 21.5301 89.9962 21.676 90.4692 21.676C91.0696 21.676 91.5971 21.521 92.0519 21.2109L93.3345 24.8491Z" fill="white"/>
<path fill-rule="evenodd" clip-rule="evenodd" d="M11.1511 13.5551L20.3657 1.0659L14.0915 1.78744C14.111 1.92479 14.121 2.06515 14.121 2.20787C14.121 3.84815 12.7913 5.17786 11.151 5.17786C9.51076 5.17786 8.18105 3.84815 8.18105 2.20787C8.18105 2.06321 8.19139 1.92097 8.21138 1.78184L2.08883 1.0659L11.1511 13.5551Z" fill="#1DE9B6"/>
<circle cx="11.1512" cy="2.20849" r="2.20846" transform="rotate(180 11.1512 2.20849)" fill="white"/>
</svg>
