<svg width="23" height="26" viewBox="0 0 23 26" fill="none" xmlns="http://www.w3.org/2000/svg">
<path fill-rule="evenodd" clip-rule="evenodd" d="M11.1511 13.5551L20.3657 1.0659L14.0915 1.78744C14.111 1.92479 14.121 2.06515 14.121 2.20787C14.121 3.84815 12.7913 5.17786 11.151 5.17786C9.51076 5.17786 8.18105 3.84815 8.18105 2.20787C8.18105 2.06321 8.19139 1.92097 8.21138 1.78184L2.08883 1.0659L11.1511 13.5551Z" fill="#1DE9B6"/>
<circle cx="11.1512" cy="2.20849" r="2.20846" transform="rotate(180 11.1512 2.20849)" fill="white"/>
<path fill-rule="evenodd" clip-rule="evenodd" d="M17.1915 16.0873L17.2461 25.4509H22.2125L22.1579 6.30287H18.7567L11.1608 16.1474L3.66292 6.30287H0V25.4509H4.99372V16.3609L9.87828 23.5634H12.2796L17.1915 16.0873Z" fill="white"/>
</svg>
